<?xml version="1.0" encoding="utf-8"?>
<!-- Generator: Adobe Illustrator 27.7.0, SVG Export Plug-In . SVG Version: 6.00 Build 0)  -->
<svg version="1.1" xmlns="http://www.w3.org/2000/svg" xmlns:xlink="http://www.w3.org/1999/xlink" x="0px" y="0px"
	 viewBox="0 0 1100.49 1189.45" style="enable-background:new 0 0 1100.49 1189.45;" xml:space="preserve">
<style type="text/css">
	.st0{fill:#874CF6;}
	.st1{fill:#0A0028;}
	.st2{fill:#6C35EA;}
	.st3{fill:#FFFFFF;}
</style>
<g id="ARTWORK">
	<g>
		<path class="st0" d="M306.54,941.12c6.24-10.47,9.36-22.19,9.36-35.14c0-15.06-3.88-27.07-11.65-36.02
			c-7.77-8.94-19.37-15.42-34.79-19.42c-3.41-0.88-7.01-1.68-10.8-2.39c2.54-0.62,5.04-1.28,7.45-2.03
			c13.18-4.12,23.54-10.83,31.08-20.13c7.53-9.3,11.3-21.37,11.3-36.2c0-12.48-3.06-23.36-9.18-32.67
			c-6.13-9.3-15.72-16.42-28.78-21.37c-13.07-4.94-30.08-7.42-51.03-7.42H112.12v247.22h100.3c26.13,0,46.8-3.12,61.98-9.36
			C289.59,959.96,300.3,951.6,306.54,941.12z M180.28,775.66h27.2c11.53,0,19.83,2.06,24.9,6.18c5.06,4.12,7.59,10.42,7.59,18.9
			c0,7.54-2.18,13.77-6.53,18.72c-4.36,4.94-12.66,7.42-24.9,7.42h-28.25V775.66z M235.91,919.75c-5.53,4.94-14.42,7.42-26.66,7.42
			h-28.96V869.6h27.2c13.18,0,22.6,2.18,28.25,6.53c5.65,4.36,8.48,11.48,8.48,21.37S241.44,914.81,235.91,919.75z"/>
		<path class="st0" d="M577.95,914.98c5.88-14.95,8.95-32.9,9.18-53.86v-25.78H450.45v45.91h70.73c-0.91,6.71-2.47,12.49-4.69,17.31
			c-2.83,6.13-6.71,11.12-11.65,15.01c-4.94,3.88-10.66,6.71-17.13,8.48c-6.48,1.77-13.48,2.65-21.01,2.65
			c-10.83,0-20.31-1.59-28.43-4.77c-8.12-3.18-14.72-7.89-19.78-14.13c-5.07-6.24-8.95-13.95-11.65-23.13
			c-2.71-9.18-4.06-19.66-4.06-31.43c0-14.13,2.35-26.37,7.06-36.73c4.71-10.36,11.83-18.3,21.37-23.84
			c9.54-5.53,21.25-8.3,35.14-8.3c7.53,0,14.77,0.94,21.72,2.83c6.94,1.89,13.07,5.18,18.37,9.89c5.3,4.71,9.12,11.3,11.48,19.78
			h69.93c-4.01-20.95-12.07-38.14-24.19-51.56c-12.13-13.42-27.02-23.36-44.68-29.84c-17.66-6.47-36.61-9.71-56.86-9.71
			c-19.55,0-37.32,3.12-53.33,9.36c-16.01,6.24-29.9,15.01-41.67,26.31c-11.78,11.3-20.84,24.78-27.19,40.44
			c-6.36,15.66-9.54,32.91-9.54,51.74c0,19.07,3.06,36.44,9.18,52.09c6.12,15.66,15.07,29.2,26.84,40.62
			c11.77,11.42,26.13,20.25,43.09,26.49c16.95,6.24,36.02,9.36,57.21,9.36c17.89,0,34.08-2.3,48.56-6.89
			c14.48-4.59,27.07-11.71,37.79-21.37C563.76,942.24,572.06,929.94,577.95,914.98z"/>
		<polygon class="st0" points="916.33,728.33 873.52,898.35 825.91,727.98 753.87,727.98 707.41,900.74 665.22,728.33 
			589.99,728.33 666.63,975.91 742.92,975.91 786.55,818.9 834.04,975.91 912.79,975.91 988.37,728.33 		"/>
		<path class="st0" d="M318.02,1006.9c-4.23-1.92-9.8-2.88-16.73-2.88h-23.8v73.31h9.87v-25.66h11.74c7.2,0,13.11-0.98,17.72-2.93
			c4.61-1.95,8-4.73,10.18-8.33c2.18-3.6,3.27-7.87,3.27-12.83c0-4.89-0.99-9.08-2.96-12.57
			C325.35,1011.52,322.25,1008.82,318.02,1006.9z M318.02,1036.22c-1.32,2.34-3.52,4.12-6.6,5.34c-3.08,1.22-7.26,1.83-12.52,1.83
			h-11.53v-31h13.72c4.99,0,8.85,0.58,11.59,1.73c2.74,1.15,4.64,2.86,5.72,5.13c1.07,2.27,1.61,5.08,1.61,8.43
			C320,1031.04,319.34,1033.89,318.02,1036.22z"/>
		<polygon class="st0" points="407.51,1036.49 364.8,1036.49 364.8,1004.02 354.93,1004.02 354.93,1077.33 364.8,1077.33 
			364.8,1044.86 407.51,1044.86 407.51,1077.33 417.38,1077.33 417.38,1004.02 407.51,1004.02 		"/>
		<path class="st0" d="M472.42,1003.81l-33.67,73.52h10.6l9-20h36.87l8.79,20h11.01l-33.46-73.52H472.42z M462.14,1049.05
			l14.75-33.2l14.74,33.2H462.14z"/>
		<path class="st0" d="M580.73,1045.18c3.05-2.09,5.32-4.73,6.81-7.91c1.49-3.18,2.23-6.58,2.23-10.21c0-3.49-0.54-6.67-1.61-9.53
			c-1.07-2.86-2.77-5.29-5.09-7.28c-2.32-1.99-5.32-3.53-8.99-4.61c-3.67-1.08-8.14-1.62-13.41-1.62h-23.48v73.31h9.87v-26.6h11.02
			c1.31,0,2.68-0.05,4.1-0.16c0.97-0.07,1.89-0.15,2.78-0.24l19.61,27h11.95l-21.78-29.4
			C577.02,1047.27,579.02,1046.35,580.73,1045.18z M558.38,1042.66h-11.33v-30.27h13.3c5.06,0,8.95,0.56,11.69,1.68
			c2.74,1.12,4.66,2.77,5.77,4.97c1.11,2.2,1.66,4.87,1.66,8.01c0,3-0.62,5.67-1.87,8.01c-1.25,2.34-3.41,4.19-6.49,5.55
			C568.03,1041.98,563.79,1042.66,558.38,1042.66z"/>
		<polygon class="st0" points="693.8,1004.02 664.91,1065.21 634.36,1004.02 623.24,1004.02 618.77,1077.33 628.44,1077.33 
			631.95,1020.27 660.65,1077.33 668.97,1077.33 696.24,1020.05 700.56,1077.33 710.43,1077.33 705.02,1004.02 		"/>
		<path class="st0" d="M764.39,1003.81l-33.67,73.52h10.6l9-20h36.87l8.79,20H807l-33.46-73.52H764.39z M754.11,1049.05l14.75-33.2
			l14.74,33.2H754.11z"/>
		
		<!-- Animowany kształt główny -->
		<path class="st0" d="M313.12,398.34c46.79,37.72,43.96,108.22,43.96,108.22c-2.32,34.93,34.75,65.69,68.83,56.6
			c60.05-13.35,113.44,32.8,113.44,32.8c26.73,23.86,73.46,13.72,87.66-19.5c26.46-54.32,95.89-67.26,95.89-67.26
			c34.57-5.75,55.4-47.17,40.59-78.11c-25.69-55.79-27.86-60.69,4.53-116.74l1.48-2.76c17.21-30.75-2.74-74.51-38.13-81.03
			c-59.22-13.71-87.29-78.64-87.29-78.64c-13.36-32.39-58.32-43.48-85.2-22.16c-49.56,39.24-117.85,20.7-117.85,20.7
			c-33.58-9.47-69.96,17.67-70.44,52.56c0.13,61.17-57.3,105.29-57.3,105.29C283.82,329.45,283.75,377.11,313.12,398.34z
			 M398.15,378.63c18.43-26.56-16.57-79-2.29-97.64c6.92-16.95,46.49-16.47,64.53-29.9c18.19-15,36.54-54.34,53.49-53.1
			c17.93-5.02,41.96,26.26,63.61,31.82c22.77,4.9,65.36-5.32,74.87,8.71c15.01,10.6,5.68,48.82,14.78,69.56
			c29.44,45.84,67.72,59.46,9.43,101.32c-44.63,38.05,0.93,113.64-87.86,88.17c-29.88-11.84-73.14,33.82-94.38,24.01
			c-18.36-3.26-26.41-41.88-43.49-56.26C404.94,436.95,364.04,441.28,398.15,378.63z">
			
			<!-- Animacja obracania dla głównego kształtu -->
			<animateTransform 
				attributeName="transform" 
				type="rotate" 
				values="0 540.78 362.12;360 540.78 362.12" 
				dur="8s" 
				repeatCount="indefinite"/>
		</path>
		
		<!-- Animowana elipsa -->
		<ellipse transform="matrix(.9782 -0.2076 0.2076 0.9782 -63.3925 120.1503)" class="st0" cx="540.78" cy="362.12" rx="55.81" ry="55.81">
			
			<!-- Animacja obracania dla elipsy -->
			<animateTransform 
				attributeName="transform" 
				type="rotate" 
				values="0 540.78 362.12;-360 540.78 362.12" 
				dur="4s" 
				repeatCount="indefinite"/>
		</ellipse>
	</g>
</g>
<g id="Guides">
</g>
</svg>