<svg xmlns="http://www.w3.org/2000/svg" xmlns:xlink="http://www.w3.org/1999/xlink" xmlns:inkscape="http://www.inkscape.org/namespaces/inkscape" version="1.1" width="595" height="842" viewBox="0 0 595 842">
<defs>
<clipPath id="clip_0">
<path transform="matrix(.12,0,0,-.12,0,842)" d="M0 6896.51V120.84H4958V6896.51Z"/>
</clipPath>
</defs>
<g clip-path="url(#clip_0)">
<path transform="matrix(.12,0,0,-.12,0,842)" d="M366.457 6527.97H4371.72V544.582H366.457ZM370.348 548.48H4367.81V6524.07H370.348" fill="#ed1a4e"/>
<text fill="#ed1a4e" xml:space="preserve" transform="matrix(.9999996 0 -0 .9999996 0 842)" font-size="19.7813" font-family="Helvetica" font-weight="bold"><tspan y="-786.317" x="26.197">1</tspan></text>
<text fill="#ed1a4e" xml:space="preserve" transform="matrix(1.1303889 0 -0 .8846506 0 842)" font-size="5.031114" font-family="Helvetica"><tspan y="-900.02389" x="38.900758 42.256509 45.05381 47.569368 50.366666 54.557584 57.354887 58.471796 61.269098 62.94446 66.982929 69.780239 70.89714 75.31899 78.116298 80.9136 83.7109 86.5082 90.14067 92.65623">Egzemplarzdlanadawcy</tspan><tspan y="-894.4337" x="38.900758 42.256509 44.772069 47.569368 51.760286 54.557584 55.674489 58.471788 61.662 63.060647 65.91882 69.170398 71.9677 74.765 79.27993 82.63568 85.43298 87.94854 90.74584 93.543148 96.34045 99.13775">Exemplarf&#x00fc;rdenAbsender</tspan><tspan y="-888.8436" x="38.900758 42.53322 45.330518 48.127817 52.261884 53.660535 56.457834 59.770277 62.28583 65.08314 67.88044 70.67774 73.475048">Copyforsender</tspan></text>
<text fill="#ed1a4e" xml:space="preserve" transform="matrix(.9999996 0 -0 .9999996 0 842)" font-size="9.89063" font-family="Helvetica" font-weight="bold"><tspan y="-771.481" x="53.8636">1</tspan></text>
<text fill="#ed1a4e" xml:space="preserve" transform="matrix(.9999996 0 -0 .9999996 0 842)" font-size="3.95625" font-family="Helvetica"><tspan y="-777.4285" x="61.28157 64.137989 66.33766 68.53734 70.737018 73.59343 75.571559 78.92487 80.2423 82.44198 84.641658 86.61978 89.4762 90.354488 92.33261 94.31074 97.77127 98.64956 100.849239 104.32045 106.52013 108.7198 110.69793 113.554347 115.75402 118.15428 120.35396 122.553638 123.87106 126.07074 128.04886 130.38423 132.36235 133.67978 135.87946 136.75774">Nadawca(nazwiskolubnazwa,adres,kraj)</tspan><tspan y="-772.4832" x="61.28157 63.92039 66.12006 68.09819 70.29787 72.49754 74.69722 76.8969 79.459339 80.776767 83.63318 85.832859 89.12841 91.32809 93.69432 96.33314 98.532817 100.51094 102.48907 104.68874 106.00617 106.88446 107.9843 109.08414 111.47134 113.67101 115.87069 118.070369 120.27004">Absender(Name,Anschrift,Land)</tspan><tspan y="-767.5379" x="61.28157 63.92039 66.12006 68.31974 70.51942 72.71909 75.24909 76.56652 78.7662 80.96587 84.26143 86.461109 88.815868 91.01554 93.21522 95.414897 96.73232 98.932 100.910129 102.88825 105.32292 107.30105 109.500728 111.7004 113.90008 114.999919 116.317348 118.29547">Sender(name,address,country)</tspan><tspan y="-777.4285" x="291.23957 294.5763 295.71733 297.2466 298.39036 301.26377 303.7364 306.40968 309.2831 312.02326 314.83024 317.9711 320.91139 323.9854 327.86134 331.80418 334.47746 337.08387 340.42527 343.63304 346.5068 349.31379 352.58839 355.39537 358.46937 362.3453 366.28813 368.49333 369.76329 372.3697 376.17878 378.9189 381.7259 384.1985 386.93864 390.61399 393.82176 396.29435 399.43525 403.24433">MIE&#x02db;DZYNARODOWYSAMOCHODOWYLISTPRZEWOZOWY</tspan><tspan y="-772.01589" x="291.23957 292.37577 295.1823 297.65495 300.39509 303.20524 306.21235 308.8049 311.27754 312.48063 315.55464 318.42805 321.16819 323.37339 326.11354 330.32377 332.7964 335.60655 338.34669 341.1568 344.03059 346.5032 349.24336 352.0535 353.32304 355.86259">INTERNATIONALERFRACHTBRIEF</tspan><tspan y="-766.5362" x="291.23957 292.37577 295.1823 297.65495 300.39509 303.2131 306.22029 308.8207 311.29335 312.49644 315.57048 318.44386 321.184 324.72605 327.59947 330.67347 333.61375 336.2142 337.48377 340.55775 343.43159 346.77299 349.44627 352.31968">INTERNATIONALCONSIGNMENT</tspan></text>
<text fill="#ed1a4e" xml:space="preserve" transform="matrix(.9999996 0 -0 .9999996 0 842)" font-size="9.89063" font-family="Helvetica" font-weight="bold"><tspan y="-759.65219" x="386.20268 393.4871 401.77339">CMR</tspan></text>
<text fill="#ed1a4e" xml:space="preserve" transform="matrix(.9999996 0 -0 .9999996 0 842)" font-size="3.95625" font-family="Helvetica" font-weight="bold"><tspan y="-762.59268" x="420.95347">N</tspan></text>
<text fill="#ed1a4e" xml:space="preserve" transform="matrix(.9999996 0 -0 .9999996 0 842)" font-size="2.96719" font-family="Helvetica" font-weight="bold"><tspan y="-764.063" x="423.76">o</tspan></text>
<path transform="matrix(.12,0,0,-.12,0,842)" d="M3531.29 6358.1H3547.5362V6363.2058H3531.29Z" fill="#ed1a4e"/>
<path transform="matrix(.12,0,0,-.12,0,842)" d="M3160.5 6316.34C3160.5 6298.71 3235.68 6280.84 3310.85 6280.84H3323.16C3398.34 6280.84 3473.52 6298.71 3473.52 6316.34V6393.38C3473.52 6411.02 3398.34 6428.88 3323.16 6428.88H3310.85C3235.68 6428.88 3160.5 6411.02 3160.5 6393.38ZM3176.74 6393.38C3176.74 6403.13 3243.8 6412.88 3310.85 6412.88H3323.16C3390.21 6412.88 3457.28 6403.13 3457.28 6393.38V6316.34C3457.28 6306.6 3390.21 6296.85 3323.16 6296.85H3310.85C3243.8 6296.85 3176.74 6306.6 3176.74 6316.34" fill="#ed1a4e"/>
<text fill="#ed1a4e" xml:space="preserve" transform="matrix(.9999996 0 -0 .9999996 0 842)" font-size="3.95625" font-family="Helvetica"><tspan y="-746.754" x="291.239 294.046 294.9148 297.18687 298.1894 300.39857 301.28636 303.22453 305.36329 308.70475 310.90995 312.23686 314.24186 316.45106 319.31697 319.695 321.51255 324.85404 327.05775 329.32987 331.53355 332.5361 334.7398 336.9435 340.4187 342.69084 344.89607 346.9676 348.10386 350.30754 352.57966 354.78337 357.59037 358.5929 360.79814 363.07026 363.9391 366.1428 370.8207 372.82579 375.031 377.30314 380.11015 382.31385 384.58595 386.65745 387.52629 389.73155 393.34049 395.5442 398.88566 401.15803 403.96504 404.84733 408.45628 411.79774 412.66658 413.27674 414.87266 417.07783 419.21617 421.15428 423.4263 425.63148 426.95994 429.23197 431.4427 433.6534 436.52085 438.7316 440.93678 443.2088 444.54518 446.617 448.88905 451.69599 453.96803 455.90617">Niniejszyprzewo&#x00b4;zpodlegapostanowieniomkonwencjioumowiemie&#x02db;dzynarodowejprzewozu</tspan><tspan y="-741.8087" x="291.239 293.4474 294.85069 297.05906 299.26747 301.47584 304.3409 306.54933 308.8214 312.3634 313.49964 315.70805 318.57313 320.78153 322.10765 322.5019 324.38627 328.5965 329.92658 332.86686 336.20829 339.0821 341.8222 344.03459 346.2469 349.58839 352.45747 354.3956 356.6677 357.60337 358.20957 359.87236 362.07759 365.55278 367.75798 371.36686 372.23567 374.43339 376.50489 377.85398 378.77696 380.71513 382.9872 383.86354 386.8038 387.68016 389.87785 393.2193 395.42454 396.82783 398.76597 401.03804 403.10954 403.98585 406.85929 409.05699 410.40608 412.66587 414.60404 415.60655 417.81175 420.0838 422.022 424.2941 425.09599 425.7065 427.36894">drogowegotowaro&#x00b4;w(CMR)bezwzgle&#x02db;dunajaka&#x02db;kolwiekprzeciwna&#x02db;klauzule&#x02db;.</tspan></text>
<path transform="matrix(.12,0,0,-.12,0,842)" d="M366.457 6527.97H4371.72V5984.43H366.457ZM370.348 5988.33H4367.81V6524.07H370.348" fill="#ed1a4e"/>
<text fill="#ed1a4e" xml:space="preserve" transform="matrix(.9999996 0 -0 .9999996 0 842)" font-size="3.95625" font-family="Helvetica"><tspan y="-735.928" x="291.239 294.046 294.9148 297.18687 299.25877 302.73396 305.4741 307.68089 308.81709 311.02388 312.34843 314.6205 316.8257 318.15025 320.42234 322.62913 326.17115 328.4432 330.64845 331.78465 333.98985 335.3144 336.3169 337.2023 339.4091 341.68119 344.15385 345.2232 346.6265 348.83329 350.1028 353.37739 355.64949 356.53489 358.74168 360.9485 363.68858 365.8954 368.16749 370.37428 372.58106 374.85316">DieseBef&#x00f6;rderungunterliegttrotzeinergegen-</tspan><tspan y="-730.98269" x="291.239 292.37519 294.58036 295.4618 296.46424 297.34568 299.5485 301.7513 305.36018 307.9665 310.17167 313.51307 315.71824 317.85655 320.05937 322.26219 324.5342 327.9425 330.21455 332.41737 336.0262 338.69944 340.97148 342.9096 344.04576 345.04826 348.38966 351.73103 353.93385 356.13667 358.33949 360.6115 364.08668 366.28947 368.49229">teiligenAbmachungdenBestimmungendes</tspan><tspan y="-726.03738" x="291.239 294.046 296.31809 298.5269 299.8534 302.1255 302.99427 305.20307 307.27497 309.54704 312.8885 316.2299 318.4387 320.6475 323.98896 326.19776 328.46983 330.67863 333.285 335.4938 337.7659 341.30793 344.04804 346.25685 347.39308 349.60188 350.9284 353.20048 355.4057 356.7322 359.0043 361.2131 363.4219 365.4269 367.4988 369.77088 371.0974 372.2336 373.56016 375.76896">&#x00dc;bereinkommens&#x00fc;berdenBef&#x00f6;rderungsvertrag</tspan><tspan y="-721.09207" x="291.239 292.12089 296.79875 297.68058 299.88386 301.02006 303.22526 304.6285 306.83177 309.035 310.30497 311.18684 313.39006 315.5933 317.8654 318.74723 320.95048 324.55937 327.23265 328.36888 329.70527 331.97737 333.9155 336.05427 338.25749 340.46076 342.73283 344.93608 346.00547 348.27754 349.61396 351.61897 353.82417 355.14515 357.28349 359.48674 361.68998 364.29634 365.6996 368.6399 371.98133 374.8547">iminternationalenStrasseng&#x00fc;terverkehr(CMR)</tspan><tspan y="-735.9279" x="411.93104 414.40367 416.60887 417.49308 420.83457 422.7727 425.0448 426.36817 427.6915 428.69404 430.89967 433.17176 436.6469 437.58259 440.92408 442.92909 445.1347 447.3403 448.22456 450.4966 452.5685 455.0412 457.24638 459.51844 460.58784 463.4502 464.4527 465.52207 467.79417 469.7323 471.00227 473.20793 475.4135 477.68559 478.5698 480.77543 484.38435 486.58998 488.79557">Thiscarriageissubjectnotwithstandingany</tspan><tspan y="-730.9826" x="411.93104 413.86918 414.738 416.9432 419.2153 421.28678 424.76197 425.96464 429.43983 430.70936 432.91456 436.38975 438.46125 440.7333 442.9385 444.07475 445.41114 447.61634 449.01963 450.9578 453.43046 454.7 458.1083 459.37788 461.58308 465.05827 467.99855 470.27064 472.47584 474.48085 476.68605 478.89125 480.02748 481.02998 483.23518 486.71034 488.91554">clausetothecontrary,totheConventionon</tspan><tspan y="-726.0373" x="411.93104 413.0008 415.20643 418.81568 421.68995 423.8951 426.1003 427.23695 428.5599 430.8324 432.90467 435.3777 436.5143 438.71995 441.46043 442.5302 444.8027 448.34513 449.22895 451.50144 452.5712 454.7768 456.18049 458.3857 460.5909 461.86125 462.74504 464.9503 467.1555 469.42796 471.63356 474.5078 476.71305 478.03599 479.43968 480.3757 482.64817 484.8538 488.3294 490.53504">theContractfortheinternationalCarriageof</tspan><tspan y="-721.092" x="411.93104 414.14024 416.3494 418.5586 420.83067 424.17213 426.37733 429.71879 431.05519 433.32728 435.53248 439.00767 440.3441 443.28477 446.62617 449.4921">goodsbyroad(CMR)</tspan></text>
<path transform="matrix(.12,0,0,-.12,0,842)" d="M2394.28 5984.52H2398.2254V6527.9689H2394.28Z" fill="#ed1a4e"/>
<text fill="#ed1a4e" xml:space="preserve" transform="matrix(.9999996 0 -0 .9999996 0 842)" font-size="9.89063" font-family="Helvetica"><tspan y="-706.256" x="53.8636">2</tspan></text>
<text fill="#ed1a4e" xml:space="preserve" transform="matrix(.9999996 0 -0 .9999996 0 842)" font-size="3.95625" font-family="Helvetica"><tspan y="-712.1369" x="61.41563 64.49912 66.70434 68.976428 69.84521 72.05043 73.373378 75.511737 78.920047 80.32329 82.5285 84.73372 86.87208 89.67904 90.54783 92.68619 94.62436 98.23326 99.10205 101.30726 104.91616 107.12136 109.39345 111.33161 114.20544 116.41065 118.88331 121.08852 123.3606 124.683528 126.888729 129.02709 131.49974 133.4379 134.84114 137.04634 137.93016">Odbiorca(nazwiskolubnazwa,adres,kraj)</tspan><tspan y="-707.1916" x="61.41563 64.02203 67.363468 69.568668 70.77177 73.043849 75.24906 77.45428 79.72635 82.26584 83.6691 86.60938 88.81459 92.15601 94.428089 96.90074 99.50716 101.71237 103.78386 105.788898 107.9941 109.397357 110.26615 111.469249 112.60548 115.07813 117.28335 119.48855 121.76064 123.96584">Empf&#x00e4;nger(Name,Anschrift,Land)</tspan><tspan y="-702.2463" x="61.41563 64.22258 66.49467 68.70344 70.708469 71.64412 73.91621 76.12498 78.33375 81.808917 83.135417 85.407489 87.61626 90.95768 93.16646 95.639118 97.91119 100.119968 102.32874 103.655239 105.92732 107.99881 110.00384 112.476497 114.41466 116.686748 118.89551 121.10429 122.37385 123.70033 125.70537">Consignee(name,address,country)</tspan></text>
<text fill="#ed1a4e" xml:space="preserve" transform="matrix(.9999996 0 -0 .9999996 0 842)" font-size="9.89063" font-family="Helvetica" font-weight="bold"><tspan y="-706.256" x="292.24165 297.78837">16</tspan></text>
<text fill="#ed1a4e" xml:space="preserve" transform="matrix(.9999996 0 -0 .9999996 0 842)" font-size="3.95625" font-family="Helvetica"><tspan y="-712.1369" x="305.33995 307.9376 309.27397 311.3458 313.61787 316.43309 318.7051 319.01948 320.6435 322.91557 323.85124 327.19273 328.59599 330.80119 333.00639 335.0114 337.81837 338.8209 340.8259 342.76408 346.373 347.24177 349.44697 353.05589 355.26109 357.53318 359.47135 362.47846 364.68373 367.15638 369.36155 371.56675 372.97004 375.17524 377.18025 379.65293 381.5911 382.9944 385.1996 386.2021">Przewoz&#x00b4;nik(nazwiskolubnazwa,adres,kraj)</tspan><tspan y="-707.1916" x="305.33995 307.81257 309.149 311.3546 313.35963 315.56526 316.70146 317.97099 320.1766 322.38224 323.70558 325.97767 328.58406 329.90739 332.8477 335.11976 338.46119 340.6668 343.13948 345.74586 347.95106 350.0894 352.02757 354.2332 355.63645 356.5207 357.7238 358.86 361.33265 363.53828 365.74388 368.01597 370.2216">Frachtf&#x00fc;hrer(Name,Anschrift,Land)</tspan><tspan y="-702.2463" x="305.33995 308.14613 310.41783 311.74119 313.06455 313.9488 316.22047 318.89329 320.29615 322.50178 324.7074 328.04844 330.32014 332.7924 334.998 337.2036 339.4092 340.8121 343.01774 345.02238 347.09385 349.5661 351.5707 353.77635 355.98197 358.25367 359.32264 360.7255 362.79698">Carrier(name,address,country)</tspan></text>
<text fill="#ed1a4e" xml:space="preserve" transform="matrix(.9999996 0 -0 .9999996 0 842)" font-size="7.9125" font-family="Helvetica" font-weight="bold"><tspan y="-667.6291" x="305.33995 311.02033 319.44078 325.2549 330.5342 337.1791 408.92335">NRREJ:/</tspan></text>
<path transform="matrix(.12,0,0,-.12,0,842)" d="M2394.28 5988.46H4372.41V4406.3H2394.28ZM2410.43 4422.45H4356.25V5972.32H2410.43" fill="#ed1a4e"/>
<path transform="matrix(.12,0,0,-.12,0,842)" d="M366.457 5435.96H2393.597V5439.9055H366.457Z" fill="#ed1a4e"/>
<text fill="#ed1a4e" xml:space="preserve" transform="matrix(.9999996 0 -0 .9999996 0 842)" font-size="9.89063" font-family="Helvetica" font-weight="bold"><tspan y="-641.967" x="53.8636">3</tspan></text>
<text fill="#ed1a4e" xml:space="preserve" transform="matrix(.9999996 0 -0 .9999996 0 842)" font-size="3.95625" font-family="Helvetica"><tspan y="-647.8479" x="61.41563 64.75706 65.625858 67.83106 68.71489 70.78678 72.79182 76.40071 78.60593 79.92886 81.9339 84.139118 86.14415 88.349369 90.554569 92.692928 94.631099 96.90317 99.10839 99.99222 103.601108 104.93749 108.278919 109.147708 111.35293 112.35544 114.36046 116.29862 118.503849 121.510997 123.716197 123.977397 125.70505 126.12988 127.64312 130.11577 132.2541 133.59047 135.79569 136.66448">Miejsceprzeznaczenia(miejscowos&#x00b4;c&#x00b4;,kraj)</tspan><tspan y="-642.9026" x="61.41563 64.021999 66.22717 68.29903 69.18044 70.06185 72.333889 73.53693 75.7421 77.14532 79.34812 81.55092 83.82295 85.761089 88.03312 89.35364 91.826259 94.02906 96.23186 99.573268 102.71409 104.919269 106.122318 108.39435 111.735759 113.07211 116.1532 117.55641 118.62575 121.09835 123.37039 125.57319 127.77597 130.048">AuslieferungsortdesGutes(Ort,Land)</tspan><tspan y="-637.9573" x="61.41563 64.02203 64.957698 67.22977 69.16793 72.776828 74.98204 77.4547 79.72677 81.93239 82.816608 83.700839 85.77234 88.04441 89.38079 92.722248 94.92747 97.40012 98.53635 100.741977 104.35085 106.55647 108.762088 111.034168 113.239788 116.58124 117.90458 120.17665 120.97858 123.25066 125.18883 127.460887 129.93355 132.00502 134.21063 136.4827 138.6883 139.82453 141.14786 143.15288">Placeofdeliveryofthegoods(place,country)</tspan></text>
<text fill="#ed1a4e" xml:space="preserve" transform="matrix(.9999996 0 -0 .9999996 0 842)" font-size="9.89063" font-family="Helvetica" font-weight="bold"><tspan y="-646.9123" x="292.24165 297.78837">17</tspan></text>
<text fill="#ed1a4e" xml:space="preserve" transform="matrix(.9999996 0 -0 .9999996 0 842)" font-size="3.95625" font-family="Helvetica"><tspan y="-652.7932" x="305.33995 307.94636 310.15156 311.15406 313.35926 314.24467 316.45146 318.72355 320.92875 322.2533 324.25828 326.4651 329.47224 331.67903 331.9841 333.60813 335.8802 336.76286 338.83473 342.1762 343.5126 345.7847 347.98988 349.9949 352.80189 353.80439 355.80943 357.74757 361.35649 362.23915 364.44316 368.05207 370.25608 372.4601 374.46513 377.4054 379.67747 382.15013 384.35417 386.5582 387.9615 390.1655 392.1705 394.64317 396.58137 397.90315 400.1752 401.17774">Kolejniprzewoz&#x00b4;nicy(nazwiskolubnazwa,adres,kraj)</tspan><tspan y="-647.8479" x="305.33995 308.1469 310.4194 312.35795 314.63044 315.8339 318.03953 318.92216 321.19468 323.39869 325.6027 327.8752 331.41767 333.8907 335.29438 337.49998 339.4385 341.71104 342.7808 344.05073 346.25477 348.45878 349.86244 352.0665 354.67326 355.99504 359.0026 361.2066 364.54844 366.75248 369.2255 371.8323 374.03794 376.1767 378.11524 380.38774 381.72456 382.6072 383.87715 384.9469 387.41996 389.6924 391.89649 394.1005 396.30455">NachfolgendeFrachtf&#x00fc;hrer(Name,Anschrift,Land)</tspan><tspan y="-642.9026" x="305.33995 307.94636 310.15156 312.22343 314.22843 316.438 318.44303 320.5149 321.3837 323.3887 326.99763 328.9358 331.141 332.54429 333.8807 334.8832 337.0884 338.49168 341.83317 343.16047 345.96745 348.23954 351.58094 353.7905 356.26316 358.47273 360.7448 362.95439 364.2817 366.55378 368.49198 370.63029 373.10295 375.04115 377.31324 379.5228 381.73237 382.86857 384.1959 386.33467">Successivecarriers(Name,address,country)</tspan></text>
<path transform="matrix(.12,0,0,-.12,0,842)" d="M366.457 5089.99H4371.767V5093.9357H366.457Z" fill="#ed1a4e"/>
<text fill="#ed1a4e" xml:space="preserve" transform="matrix(.9999996 0 -0 .9999996 0 842)" font-size="9.89063" font-family="Helvetica" font-weight="bold"><tspan y="-600.4" x="53.8636">4</tspan></text>
<text fill="#ed1a4e" xml:space="preserve" transform="matrix(.9999996 0 -0 .9999996 0 842)" font-size="3.95625" font-family="Helvetica"><tspan y="-606.348" x="61.41563 64.757099 65.62593 67.829608 68.711879 70.783809 72.78887 76.39781 78.60307 80.80673 83.07885 84.148258 87.75718 89.6954 91.967517 92.84979 95.05347 97.25714 99.52925 102.469577 104.674839 106.946949 107.81578 111.35785 112.76115 116.03574 116.90457 119.17669 120.04552 122.11746 124.12253 126.3262 129.1866 131.39028 131.66155 133.4561 133.88153 135.46123 137.93389 139.9389 141.2753 143.4805 144.483 146.95566 149.16086 151.43294 152.50229 154.77436">Miejsceidataza&#x0142;adowania(miejscowos&#x00b4;c&#x00b4;,kraj,data)</tspan><tspan y="-601.4027" x="61.41563 64.49873 65.82128 68.29394 70.56602 72.770839 76.37973 78.852359 81.05757 84.53274 86.73756 88.942378 91.68244 94.54399 96.74881 98.95362 100.35687 102.56168 104.76651 106.97133 110.31275 113.92165 116.12686 118.39893 121.74039 124.823497 127.02834 128.2979 130.5031 133.84456 135.18093 138.26404 139.6673 140.73665 143.2093 145.48137 147.68619 149.891 152.16306 154.63571 157.57599 159.7808 160.91707 163.12187 166.46332">OrtundTagder&#x00dc;bernahmedasGutes(Ort,Land,Datum)</tspan><tspan y="-596.4574" x="61.41563 64.02207 64.95776 67.23224 69.170459 72.77938 74.984638 77.259128 80.66748 82.941959 85.14722 86.35035 89.825557 91.095149 93.30041 95.305469 96.1743 98.37956 101.98849 104.19375 106.13195 108.40644 111.07968 112.21596 114.42122 118.03014 120.2354 122.50989 124.71513 126.920398 130.26189 131.65409 133.85933 134.72815 136.9334 139.07178 141.27704 143.74973 145.68795 147.96242 150.16767 152.37293 153.5092 154.84563 156.984 158.15866 159.33332 161.6078 163.88228 165.05695 167.33144">Placeanddatetakingoverthegoods(place,country,&#xfffd;data)</tspan></text>
<text fill="#ed1a4e" xml:space="preserve" transform="matrix(.9999996 0 -0 .9999996 0 842)" font-size="9.89063" font-family="Helvetica" font-weight="bold"><tspan y="-600.4001" x="292.24165 297.78837">18</tspan></text>
<text fill="#ed1a4e" xml:space="preserve" transform="matrix(.9999996 0 -0 .9999996 0 842)" font-size="3.95625" font-family="Helvetica"><tspan y="-606.3481" x="305.33995 307.8126 310.01786 312.02293 313.09233 314.49568 316.56718 318.7724 319.1235 320.77723 322.98243 325.25453 326.12333 329.6653 331.9374 334.1426 336.9496 339.22169 341.42689 343.63209 345.90419 347.2406 349.31208 351.58418 354.39115 356.66325 356.97938 358.6034 360.8086 361.8111 363.8161">Zastrzez&#x02d9;eniaiuwagiprzewoz&#x00b4;nika</tspan><tspan y="-601.4028" x="305.33995 307.94636 310.15156 311.4769 313.74897 315.95655 318.16413 320.43623 321.3719 322.5081 326.117 328.3246 330.53218 334.00736 336.74748 338.9527 342.29414 344.49937 345.90266 347.8408 350.11286 352.32044 354.52806 356.73564 360.34455 362.55216 364.82423 367.49748 369.9701 371.37339 373.57859 375.58357 377.7888 378.92503 380.12809 382.3357 384.60777 385.9331 388.1407">VorbehalteundBemerkungenderFrachtf&#x00fc;hrer</tspan><tspan y="-596.45748" x="305.33995 308.14649 310.41859 311.7423 313.06608 313.95066 316.22276 317.55918 318.56169 321.90315 323.22688 325.43287 327.4379 329.64314 331.04643 332.98457 335.25666 336.45973 337.34437 339.55036 341.82246 345.16389 347.36988 349.5759 353.1848 355.3908 357.5968 359.6018 361.80784 363.2111 365.1493 367.42137 368.62446 369.49327 371.69926 373.97135">Carrier&#x2019;sreservationsandobservations</tspan></text>
<path transform="matrix(.12,0,0,-.12,0,842)" d="M366.457 4743.79H2393.597V4747.7316H366.457Z" fill="#ed1a4e"/>
<text fill="#ed1a4e" xml:space="preserve" transform="matrix(.9999996 0 -0 .9999996 0 842)" font-size="9.89063" font-family="Helvetica" font-weight="bold"><tspan y="-558.832" x="53.8636">5</tspan></text>
<text fill="#ed1a4e" xml:space="preserve" transform="matrix(.9999996 0 -0 .9999996 0 842)" font-size="3.95625" font-family="Helvetica"><tspan y="-564.77999" x="61.41563 63.888257 66.09346 66.97452 68.3236 69.179698 71.18473 73.25623 75.528308 77.73076 81.205928 83.40837 85.610828 87.74918 89.95162 93.293048 95.49548 97.76757 98.83693">Za&#x0142;a&#x02db;czonedokumenty</tspan><tspan y="-559.83468" x="61.41563 64.02203 66.22725 67.22977 69.43498 71.6402 72.77643 74.98164 77.253719 78.32309 81.93198 84.738948 87.01102 89.08252 91.28773 94.62915 96.90124 99.106449 100.24268">Beigef&#x00fc;gteDokumente</tspan><tspan y="-554.88937" x="61.41563 64.22258 66.49467 68.43283 70.70492 73.97947 76.25154 78.45676 79.726329 83.06777 85.27299 86.34236 87.47859 89.68381 91.82217 94.02738 96.2326">Documentsattached</tspan></text>
<path transform="matrix(.12,0,0,-.12,0,842)" d="M366.457 4405.69H4371.767V4409.6354H366.457Z" fill="#ed1a4e"/>
<text fill="#ed1a4e" xml:space="preserve" transform="matrix(.9999996 0 -0 .9999996 0 842)" font-size="9.89063" font-family="Helvetica" font-weight="bold"><tspan y="-518.334" x="53.8636">6</tspan></text>
<text fill="#ed1a4e" xml:space="preserve" transform="matrix(.9999996 0 -0 .9999996 0 842)" font-size="3.95625" font-family="Helvetica"><tspan y="-524.2149" x="61.41563 64.22258 66.49467 68.43283 70.70492 73.97949 76.25157 78.45679 80.66199 84.00342 86.27549 87.61188">Cechyinumery</tspan><tspan y="-519.2696" x="61.41563 64.02188 66.22433 68.42673 70.69876 72.77017 74.97539 75.85642 77.86174 80.064189 82.26659 85.875499 88.07768 90.34972 93.892528 96.76502 98.96768 102.30893 105.65018">KennzeichenundNamme</tspan></text>
<text fill="#ed1a4e" xml:space="preserve" transform="matrix(.9999996 0 -0 .9999996 0 842)" font-size="3.95625" font-family="Helvetica"><tspan y="-519.2696" x="107.85563 109.1758">rn</tspan></text>
<text fill="#ed1a4e" xml:space="preserve" transform="matrix(.9999996 0 -0 .9999996 0 842)" font-size="3.95625" font-family="Helvetica"><tspan y="-514.3243" x="61.41563 64.75706 66.96227 68.29865 70.30369 73.64514 75.85036 78.12243 81.66447 84.53829 86.74351">MarksandNos</tspan></text>
<text fill="#ed1a4e" xml:space="preserve" transform="matrix(.9999996 0 -0 .9999996 0 842)" font-size="9.89063" font-family="Helvetica" font-weight="bold"><tspan y="-518.334" x="122.095829">7</tspan></text>
<text fill="#ed1a4e" xml:space="preserve" transform="matrix(.9999996 0 -0 .9999996 0 842)" font-size="3.95625" font-family="Helvetica"><tspan y="-524.2149" x="129.64739 130.78365 131.65242 133.85762 134.13425 135.9288 136.35424 139.27079 141.27584 143.21404 144.48363 146.68888">Ilos&#x00b4;c&#x00b4;sztuk</tspan><tspan y="-519.2696" x="129.64739 132.2538 134.459 136.59735 138.80255 141.00777 143.21297 145.48502 147.69023 150.29657 153.03672 155.24192 157.24694 159.31844 161.32346 162.39282 164.6649 166.73638 168.74141">AnzahlderPackst&#x00fc;cke</tspan><tspan y="-514.3243" x="129.64739 132.51049 134.71685 138.05825 140.26459 142.47093 145.21097 147.41732 149.88994 152.16196 154.36713 156.37212 158.31023 160.51659 162.7886 164.99497">Numberofpackages</tspan></text>
<text fill="#ed1a4e" xml:space="preserve" transform="matrix(.9999996 0 -0 .9999996 0 842)" font-size="9.89063" font-family="Helvetica" font-weight="bold"><tspan y="-518.334" x="190.32799">8</tspan></text>
<text fill="#ed1a4e" xml:space="preserve" transform="matrix(.9999996 0 -0 .9999996 0 842)" font-size="3.95625" font-family="Helvetica"><tspan y="-524.2149" x="197.87955 200.48601 202.69126 204.96337 207.03488 207.4228 209.24025 212.71543 214.91707 217.18912 219.39078 221.52912 223.73076 226.53772 228.80979 231.015 231.89525">Sposo&#x00b4;bopakowania</tspan><tspan y="-519.2696" x="197.87955 200.486 201.82242 204.29512 206.56723 208.77446 211.51456 214.18787 216.45999 217.78493 219.99213 222.26425 224.20244 226.20749 228.41472 230.62195">ArtderVerpackung</tspan><tspan y="-514.3243" x="197.87955 201.22098 203.42617 204.56243 206.76764 209.0397 212.58173 214.8538 217.32646 219.53166 221.73686 223.7419 225.68006 226.68256 228.95464">Methodofpacking</tspan></text>
<text fill="#ed1a4e" xml:space="preserve" transform="matrix(.9999996 0 -0 .9999996 0 842)" font-size="9.89063" font-family="Helvetica" font-weight="bold"><tspan y="-518.334" x="258.62675">9</tspan></text>
<text fill="#ed1a4e" xml:space="preserve" transform="matrix(.9999996 0 -0 .9999996 0 842)" font-size="3.95625" font-family="Helvetica"><tspan y="-524.2149" x="266.11128 268.97605 271.18409 273.4562 275.3944 277.60246 279.87458 281.0773 283.34944 286.1564 288.36167 289.76496">Rodzajtowaru</tspan><tspan y="-519.2696" x="266.11128 268.71769 270.98976 273.06166 275.26686 276.14674 278.15174 280.353 282.5543 284.82637 287.02763 290.6365 292.8378 295.03907 298.38053 301.46009 303.73219 304.93525 307.20735">BezeichnungdesGutes</tspan><tspan y="-514.3243" x="266.11128 268.97477 271.18159 272.3178 274.523 275.92628 279.46833 281.6751 284.14778 285.28398 287.48918 291.09809 293.30329 295.57536 297.78215 299.98893">Natureofthegoods</tspan></text>
<text fill="#ed1a4e" xml:space="preserve" transform="matrix(.9999996 0 -0 .9999996 0 842)" font-size="9.89063" font-family="Helvetica" font-weight="bold"><tspan y="-518.334" x="321.91319 327.4599">10</tspan></text>
<text fill="#ed1a4e" xml:space="preserve" transform="matrix(.9999996 0 -0 .9999996 0 842)" font-size="3.95625" font-family="Helvetica"><tspan y="-524.2149" x="335.01148 337.81849 340.0906 343.4194 345.62467 348.36479 350.30299 351.43608 353.64134 354.91093 356.84913 358.86054 360.06367 362.07508 364.08647 366.1584 368.36366">Numerstatystyczny</tspan><tspan y="-519.2696" x="335.01148 337.61793 338.821 341.0207 342.15696 343.03526 345.17366 346.24305 347.1119 349.25028 351.44996 353.64964 356.9911 360.33259 362.53785">Statistiknummer</tspan><tspan y="-514.3243" x="335.01148 337.61793 338.821 341.02195 342.1582 343.0377 345.1761 346.2455 347.11436 349.25273 351.45799 353.66325 355.8685 358.14064 361.4821 363.68299 365.88389">Statisticalnumber</tspan></text>
<text fill="#ed1a4e" xml:space="preserve" transform="matrix(.9999996 0 -0 .9999996 0 842)" font-size="9.89063" font-family="Helvetica" font-weight="bold"><tspan y="-518.334" x="391.14759 396.6943">11</tspan></text>
<text fill="#ed1a4e" xml:space="preserve" transform="matrix(.9999996 0 -0 .9999996 0 842)" font-size="3.95625" font-family="Helvetica"><tspan y="-524.2149" x="404.24589 407.92164 410.1937 412.4025 416.0114 418.22019 419.54676 421.81883 422.88819 424.15776 427.56608 431.77635 433.91468">Wagabruttowkg</tspan><tspan y="-519.2696" x="404.24589 406.8523 408.1887 410.39115 411.66069 412.73005 415.00215 417.2046 419.407 422.26618 423.2687 425.20689 427.47895 429.9516 430.83265 434.3747 436.3797">Bruttogewichtinkg</tspan><tspan y="-514.3243" x="404.24589 407.3266 408.6468 410.91889 413.12409 416.46556 419.33897 421.5414 422.5439 424.74638 426.94883 429.42149 430.30253 433.91145 435.84959">Groosweightinkg</tspan></text>
<text fill="#ed1a4e" xml:space="preserve" transform="matrix(.9999996 0 -0 .9999996 0 842)" font-size="9.89063" font-family="Helvetica" font-weight="bold"><tspan y="-518.334" x="470.27259 475.81935">12</tspan></text>
<text fill="#ed1a4e" xml:space="preserve" transform="matrix(.9999996 0 -0 .9999996 0 842)" font-size="3.95625" font-family="Helvetica"><tspan y="-524.2149" x="483.37138 486.445 488.6403 489.51426 490.12846 491.79124 492.9939 495.19914 495.47639 497.20405 497.62983 500.54643 504.7567 508.0982">Obje&#x02db;tos&#x00b4;c&#x00b4;wm3</tspan><tspan y="-519.2696" x="483.37138 486.17835 489.51976 490.65599 492.8612 495.13325 498.67497 502.01634">Umfangm3</tspan><tspan y="-514.3243" x="483.37138 485.97779 488.18299 489.18547 491.39067 494.73216 498.2073 499.20988 502.61817 505.9596">Volumeinm3</tspan></text>
<path transform="matrix(.12,0,0,-.12,0,842)" d="M2641.41 2678.82H2645.3553V4409.63H2641.41Z" fill="#ed1a4e"/>
<path transform="matrix(.12,0,0,-.12,0,842)" d="M3218.51 2678.82H3222.4554V4409.63H3218.51Z" fill="#ed1a4e"/>
<path transform="matrix(.12,0,0,-.12,0,842)" d="M3795.37 2678.82H3799.3155V4409.63H3795.37Z" fill="#ed1a4e"/>
<path transform="matrix(.12,0,0,-.12,0,842)" d="M366.457 2897.64H2640.947V2901.5853H366.457Z" fill="#ed1a4e"/>
<text fill="#ed1a4e" xml:space="preserve" transform="matrix(.9999996 0 -0 .9999996 0 842)" font-size="3.95625" font-family="Helvetica"><tspan y="-343.244" x="50.9236 53.730554 55.93577 59.277185 61.54926 64.22247 67.09629">NumurUN</tspan><tspan y="-338.29869" x="50.9236 53.730554 55.93577 59.277185 62.618597 64.89068 67.56389 70.437709">NummerUN</tspan><tspan y="-333.35337" x="50.9236 53.730554 55.93577 59.277185 61.54926 63.754476 66.494548 69.301509">NumberUN</tspan><tspan y="-343.244" x="105.322 107.86154 110.13361 111.336719 112.73996 116.01456 118.28663 120.49185 122.69706 124.702098 127.17475">Patrzpunkt9</tspan><tspan y="-338.29869" x="105.322 107.86154 110.13361 112.20512 113.34135 115.27952 116.54908 119.35603 120.75928 121.82865">Bez.s.Nr.9</tspan><tspan y="-333.35337" x="105.322 107.5248 109.7276 111.930408 115.27181 117.54385 119.74903 120.63043 122.83324 125.305858">Lookpoint9</tspan><tspan y="-343.244" x="159.7204 162.25997 163.26247 165.46767 167.4727">Klasa</tspan><tspan y="-338.29869" x="159.7204 162.26 163.26253 165.4678 167.47284 169.4779">Klasse</tspan><tspan y="-333.35337" x="159.7204 162.52736 163.39614 165.60135 167.73969">Class</tspan><tspan y="-343.244" x="214.1188 217.2027 218.52603 220.73165 223.00371 226.54573 228.8178 231.02339 233.02843 235.23404 238.041 240.31307 242.51827 243.52077">Grupapakowania</tspan><tspan y="-338.29869" x="214.1188 216.65831 218.93035 220.25443 222.46077 224.7328 226.80464 228.80963 231.01598 233.22235 236.83119 239.03754 240.44077 242.64713 244.85347 247.05983">Verpackunggruppe</tspan><tspan y="-333.35337" x="214.1188 216.59143 218.79663 222.27179 224.47699 226.6822 228.82054 230.7587 231.6275 233.89955 237.44158 239.64678 241.05002 243.25522 245.46042">Thepackinggroup</tspan><tspan y="-343.244" x="268.5172 269.85368 272.4601 275.40043 278.2743 279.87818">(ADR*)</tspan></text>
<path transform="matrix(.12,0,0,-.12,0,842)" d="M819.863 2679.29H823.8083V2901.587H819.863Z" fill="#ed1a4e"/>
<path transform="matrix(.12,0,0,-.12,0,842)" d="M1273.05 2679.29H1276.9954V2901.587H1273.05Z" fill="#ed1a4e"/>
<path transform="matrix(.12,0,0,-.12,0,842)" d="M1726.46 2679.29H1730.4053V2901.587H1726.46Z" fill="#ed1a4e"/>
<path transform="matrix(.12,0,0,-.12,0,842)" d="M2179.88 2679.29H2183.8253V2901.587H2179.88Z" fill="#ed1a4e"/>
<path transform="matrix(.12,0,0,-.12,0,842)" d="M366.457 2674.88H4371.767V2678.8253H366.457Z" fill="#ed1a4e"/>
<path transform="matrix(.12,0,0,-.12,0,842)" d="M2394.28 1286.09H2398.2254V2678.8199H2394.28Z" fill="#ed1a4e"/>
<text fill="#ed1a4e" xml:space="preserve" transform="matrix(.9999996 0 -0 .9999996 0 842)" font-size="9.89063" font-family="Helvetica" font-weight="bold"><tspan y="-310.631" x="48.9183 54.465066">13</tspan></text>
<text fill="#ed1a4e" xml:space="preserve" transform="matrix(.9999996 0 -0 .9999996 0 842)" font-size="3.95625" font-family="Helvetica"><tspan y="-316.51197" x="62.0171 63.15333 65.35854 67.36358 68.56667 69.89396 72.166049 74.10421 76.10924 77.11175 80.586917 82.796489 85.00605 87.21562 89.4877 92.42799 94.433017">Instrukcjenadawcy</tspan><tspan y="-311.56666" x="62.0171 64.623508 66.82872 69.83587 72.041088 72.924518 74.86268 77.13476 79.33958 81.54439 83.81646 87.3585 89.63057 91.83539 95.17684 97.91697 100.122188 102.06035 104.33243 106.53725 108.742069 111.014148 112.33668">AnweisungendesAbsenders</tspan><tspan y="-306.62135" x="62.0171 64.62347 66.829837 69.03619 71.30823 73.51459 74.83868 75.84115 79.182559 80.06753 82.27389 84.27888 85.5484 86.872478 89.07884 91.083827 92.15315 93.15564 95.42767 97.63403">Sender&#x2019;sinstructions</tspan></text>
<text fill="#ed1a4e" xml:space="preserve" transform="matrix(.9999996 0 -0 .9999996 0 842)" font-size="9.89063" font-family="Helvetica" font-weight="bold"><tspan y="-310.63105" x="292.2411 297.7878">19</tspan></text>
<text fill="#ed1a4e" xml:space="preserve" transform="matrix(.9999996 0 -0 .9999996 0 842)" font-size="3.95625" font-family="Helvetica"><tspan y="-316.512" x="305.3394 307.9458 310.151 312.22288 313.3591 315.56233 317.8344 320.03767 322.89765 323.8333 326.10539 328.30863 329.19047 332.79939 334.73753 336.94078 339.21287 341.15107 342.15354 344.35679 345.23866 347.51075">Postanowieniaspecjalne</tspan><tspan y="-311.56669" x="305.3394 307.9458 310.151 312.22288 314.49497 316.70097 318.90696 321.17906 322.5028 325.978 328.65126 330.92335 332.2471 334.4531 335.3377 337.60978 339.8158 342.0218 343.42509 345.63108 347.83708 350.10917 352.31517">BesondereVereinbarungen</tspan><tspan y="-306.62138" x="305.3394 307.9458 310.151 312.3562 314.49455 315.37834 317.5836 319.7888 322.06086 324.26606 325.58903 327.86109 330.06629 333.4077 335.6129 337.8181 338.95436">Specialagreements</tspan></text>
<path transform="matrix(.12,0,0,-.12,0,842)" d="M2394.28 2324.49H4372.41V1533.68H2394.28ZM2410.43 2308.35V1549.84H4356.25V2308.34" fill="#ed1a4e"/>
<text fill="#ed1a4e" xml:space="preserve" transform="matrix(.9999996 0 -0 .9999996 0 842)" font-size="9.89063" font-family="Helvetica" font-weight="bold"><tspan y="-268.061" x="292.241 297.78773">20</tspan></text>
<text fill="#ed1a4e" xml:space="preserve" transform="matrix(.9999996 0 -0 .9999996 0 842)" font-size="3.95625" font-family="Helvetica"><tspan y="-274.00898" x="305.3393 308.14585 311.75474 313.75978 315.963 318.16627 319.04814 321.25135 323.38969 325.59294 327.86503 328.66694">Dozap&#x0142;acenia</tspan><tspan y="-269.06367" x="305.3393 307.8143 311.2895 313.36137 315.5666 317.82405 318.69285 320.898 324.50697 326.4451 328.6503 332.0036">Zuzahlenvom:</tspan><tspan y="-264.11836" x="305.3393 307.81193 311.2871 313.4892 317.09809 319.30015 321.50224 322.3829 325.9918 328.197">Tobepaidby</tspan><tspan y="-274.00898" x="356.5301 359.33708 361.60917 363.81834 366.0275 368.89344 370.9653">Nadawca</tspan><tspan y="-269.06367" x="356.5301 359.1365 361.3417 363.41358 365.68568 367.89088 370.09608 372.36817">Absender</tspan><tspan y="-264.11836" x="356.5301 359.1365 361.3417 363.5469 365.75209 368.02418">Sender</tspan><tspan y="-271.53633" x="422.891 426.76698 428.97224 429.84107 432.04634 433.3159 436.12294 437.99427 441.67005 443.94218 446.14744 447.4839 449.756 451.96128">Waluta/W&#x00e4;hrung</tspan><tspan y="-266.591" x="429.4399 431.31126 434.1851 436.39317 437.71894 439.12226 441.3303 443.53837 445.67674">/Currency</tspan><tspan y="-274.00898" x="472.2105 475.3514 477.55348 479.75553 480.63618 482.8383 484.24159 486.31303">Odbiorca</tspan><tspan y="-269.06367" x="472.2105 474.81694 478.15837 480.36357 481.6331 483.8383 486.11036 488.31556 490.5208">Empf&#x00e4;nger</tspan><tspan y="-264.11836" x="472.2105 475.074 477.28083 479.4876 481.49266 482.49516 484.70195 486.90873 489.1808">Consignee</tspan></text>
<path transform="matrix(.12,0,0,-.12,0,842)" d="M2938.19 1541.57H2942.1353V2324.484H2938.19Z" fill="#ed1a4e"/>
<path transform="matrix(.12,0,0,-.12,0,842)" d="M3234.52 1541.57H3238.4615V2324.484H3234.52Z" fill="#ed1a4e"/>
<path transform="matrix(.12,0,0,-.12,0,842)" d="M3407.86 1541.57H3424.1024V2324.484H3407.86Z" fill="#ed1a4e"/>
<path transform="matrix(.12,0,0,-.12,0,842)" d="M3654.98 1533H3671.2222V2184.113H3654.98Z" fill="#ed1a4e"/>
<path transform="matrix(.12,0,0,-.12,0,842)" d="M3902.34 1541.57H3918.5823V2324.484H3902.34Z" fill="#ed1a4e"/>
<path transform="matrix(.12,0,0,-.12,0,842)" d="M4199.12 2320.54H4215.3625V2324.4854H4199.12Z" fill="#ed1a4e"/>
<path transform="matrix(.12,0,0,-.12,0,842)" d="M2394.28 2180.16H4372.45V2184.1053H2394.28Z" fill="#ed1a4e"/>
<text fill="#ed1a4e" xml:space="preserve" transform="matrix(.9999996 0 -0 .9999996 0 842)" font-size="3.95625" font-family="Helvetica"><tspan y="-257.168" x="291.239 293.83668 295.17304 297.31178 299.51695 302.33216 304.6042 304.91807 306.54209 308.81416 311.75447 313.492 315.96464 317.30107 319.57316 321.64506 323.85023">Przewoz&#x00b4;ne/Fracht</tspan><tspan y="-252.22269" x="291.239 292.97657 295.91685 298.18894 299.51783 300.8467 301.7155 303.92668 306.19874 309.74076 311.7458 313.95695 316.229 317.5579 319.769 322.0411">/Carriagecharges</tspan></text>
<path transform="matrix(.12,0,0,-.12,0,842)" d="M2938.19 2081.78H4372.2199V2085.7215H2938.19Z" fill="#ed1a4e"/>
<text fill="#ed1a4e" xml:space="preserve" transform="matrix(.9999996 0 -0 .9999996 0 842)" font-size="3.95625" font-family="Helvetica"><tspan y="-245.34" x="291.239 293.84544 296.05064 298.25584 299.25834 300.39454 301.26338 303.33525 305.60734 306.6767 309.41679 311.15437 313.82765 315.23094 318.57234 320.77754 322.78254 324.85404 325.7228 327.928 330.2001 332.4053 334.61054 336.8826">Bonifikaty/Erm&#x00e4;ssigungen</tspan><tspan y="-240.39469" x="291.239 294.046 296.31809 298.5233 300.7285 302.7335 303.93659 304.80537 307.07746 309.28266">Deductions</tspan></text>
<path transform="matrix(.12,0,0,-.12,0,842)" d="M2394.28 1980.37H4372.45V1986.4052H2394.28Z" fill="#ed1a4e"/>
<text fill="#ed1a4e" xml:space="preserve" transform="matrix(.9999996 0 -0 .9999996 0 842)" font-size="3.95625" font-family="Helvetica"><tspan y="-233.444" x="291.239 293.84544 296.05064 297.05314 299.25834 302.13175 303.9362 306.4088 308.68089 310.61909 312.62409 314.82929 315.83183 318.03703 320.30909 323.1161">Saldo/Zuschl&#x00e4;ge/</tspan><tspan y="-228.49869" x="291.239 293.84544 296.05064 297.05314 299.25834 301.46354 303.46858">Balance</tspan></text>
<path transform="matrix(.12,0,0,-.12,0,842)" d="M2938.19 1900.08H4372.2199V1904.0253H2938.19Z" fill="#ed1a4e"/>
<text fill="#ed1a4e" xml:space="preserve" transform="matrix(.9999996 0 -0 .9999996 0 842)" font-size="3.95625" font-family="Helvetica"><tspan y="-223.553" x="291.239 294.046 296.31809 298.52409 299.4087 301.6147 302.88426 305.49058 307.295 310.15776 312.36378 314.63584 316.84184 319.04786 321.25389 323.52598 325.73197 327.93797 330.21003 331.53379 333.73979">Dop&#x0142;aty/Nebengeb&#x00fc;hren</tspan><tspan y="-218.60768" x="291.239 292.97657 295.7167 297.9219 300.1271 302.33238 303.21617 305.48826 308.82966 311.30235 313.3742 315.57945 317.8515 319.17445 321.37965 323.65174">/Supplem.charges</tspan></text>
<path transform="matrix(.12,0,0,-.12,0,842)" d="M2938.19 1817.71H4372.2199V1821.6553H2938.19Z" fill="#ed1a4e"/>
<text fill="#ed1a4e" xml:space="preserve" transform="matrix(.9999996 0 -0 .9999996 0 842)" font-size="3.95625" font-family="Helvetica"><tspan y="-213.663" x="291.239 293.84544 296.05064 298.18898 300.1271 301.26335 304.6048 306.81318 309.02156 311.29365 313.50205 314.7051 316.7101 318.91535 321.78047">Kosztydodatkowe</tspan><tspan y="-208.71768" x="291.239 292.97654 295.71665 297.91944 300.12226 302.12727 303.3303 304.19905 306.40187 308.6739 311.34709 313.08464 316.426 317.42848 319.43348 321.37159 323.64363 324.57926 325.4607 327.73274 329.93556 332.13838 334.4104 336.6132">/Sonstiges/Miscellaneous</tspan></text>
<path transform="matrix(.12,0,0,-.12,0,842)" d="M2394.28 1717.01H4372.45V1723.0413H2394.28Z" fill="#ed1a4e"/>
<text fill="#ed1a4e" xml:space="preserve" transform="matrix(.9999996 0 -0 .9999996 0 842)" font-size="3.95625" font-family="Helvetica"><tspan y="-201.834" x="291.239 294.046 296.31809 298.5233 300.5283 302.7335 303.73603 305.94123 307.94624 309.8844 312.1565 314.3617 315.3642">Ubezpieczenie</tspan></text>
<path transform="matrix(.12,0,0,-.12,0,842)" d="M2394.28 1650.87H4372.45V1656.9013H2394.28Z" fill="#ed1a4e"/>
<text fill="#ed1a4e" xml:space="preserve" transform="matrix(.9999996 0 -0 .9999996 0 842)" font-size="3.95625" font-family="Helvetica"><tspan y="-193.882" x="291.239 294.046 296.31809 298.25624 300.52833 304.60484 306.3424 309.55015 311.75535 313.77265 315.97785 319.31257 320.45158 322.52345 324.72865 328.06336 331.39808">Razem/Gesamtsumme</tspan><tspan y="-188.93669" x="291.239 292.97657 295.4492 297.6544 298.92396 301.12919 303.33439 304.47059 308.0795 310.2847 313.7599 315.9651 318.17033 319.17283">/Totaltobepaid</tspan></text>
<path transform="matrix(.12,0,0,-.12,0,842)" d="M366.457 1768.05H2393.597V1771.9954H366.457Z" fill="#ed1a4e"/>
<text fill="#ed1a4e" xml:space="preserve" transform="matrix(.9999996 0 -0 .9999996 0 842)" font-size="9.89063" font-family="Helvetica" font-weight="bold"><tspan y="-201.834" x="48.9183 54.465066">14</tspan></text>
<text fill="#ed1a4e" xml:space="preserve" transform="matrix(.9999996 0 -0 .9999996 0 842)" font-size="3.95625" font-family="Helvetica"><tspan y="-207.71494" x="62.0171 64.623508 66.82872 68.96708 70.03645 72.308528 74.51335 76.71817 79.57972 80.58223 82.787059 84.991878 85.875308 89.4842 91.68901 93.89383 96.16591 98.37073 98.64853 100.37619 102.581409 103.450199 106.99223 109.264308 110.600688 112.60572 114.810939 117.75123 120.02331 120.338069 121.962078 124.23416 126.43936 128.64456">Postanowieniaodnos&#x00b4;nieprzewoz&#x00b4;nego</tspan><tspan y="-202.76963" x="62.0171 64.48973 65.82611 68.0982 70.03636 72.30844 73.37781 75.51617 77.719409 79.922649 80.8045 83.07657 85.27981 87.48305 89.48808 91.69132 93.89457 96.90171 99.10495 99.98681 101.99184 104.195079 106.398319 108.601558 110.87363">Frechtzahlungsanweisungen</tspan><tspan y="-197.82431" x="62.0171 63.15333 65.35854 67.36358 68.56667 69.89317 72.16525 74.10342 75.23965 76.242168 78.44738 81.92255 84.127758 87.469219 88.73878 92.14709 94.41916 96.62794 98.69983 100.97192 104.31334 106.5221 108.73088 111.20352 112.33977 114.54498 117.28505 119.290088 121.498859 122.82535 124.2286 125.0974 127.30617 129.51491">Instructionastopayementforcarriage</tspan><tspan y="-190.94072" x="62.0171 64.62354 65.95998 68.09837 70.30363 73.17749 75.38275 75.69711 77.32114 79.59321 83.13523 85.14027 87.34589 89.61796 90.55361 92.82569 94.76386 97.03594 99.241558 102.04851 103.919818 105.056049 106.37938 108.585 110.255718 112.06016 114.922519 117.12813 118.45147 119.85472 120.73894 122.94455 125.15016 128.75907 130.96466 133.23671 134.12094">Przewoz&#x00b4;nezap&#x0142;acone/frei/Carriagepaid</tspan><tspan y="-185.9954" x="62.0171 64.62354 65.95998 68.09837 70.30363 73.17749 75.38275 75.69711 77.32114 79.59321 83.13523 85.40732 86.289958 88.49397 90.85546 93.05949 93.94212 96.14615 98.151187 100.35521 102.55923 105.566379 107.30396 110.244258 112.44827 113.5845 114.90625 117.17833 118.78218 120.51976 123.46005 125.66527 127.068508 128.40489 129.28752 131.49155 133.7636 137.30562 138.44187 140.64707 142.05031 144.85727 147.0613 148.46454">Przewoz&#x00b4;nenieop&#x0142;acone/Unfrei/Carriageforward</tspan></text>
<path transform="matrix(.12,0,0,-.12,0,842)" d="M366.457 1529.28H4371.767V1533.2214H366.457Z" fill="#ed1a4e"/>
<text fill="#ed1a4e" xml:space="preserve" transform="matrix(.9999996 0 -0 .9999996 0 842)" font-size="9.89063" font-family="Helvetica" font-weight="bold"><tspan y="-173.098" x="48.9183 54.465066">21</tspan></text>
<text fill="#ed1a4e" xml:space="preserve" transform="matrix(.9999996 0 -0 .9999996 0 842)" font-size="3.95625" font-family="Helvetica"><tspan y="-179.0455" x="62.0171 65.75932 67.831218 69.83625 70.90561 73.18046 76.11204 76.980838 79.18604 81.39126 85.00015 155.1033 157.3085 159.58335 160.45214">Wystawionowdnia</tspan><tspan y="-174.10019" x="62.017107 64.623508 66.82872 68.96708 71.16953 73.37198 74.50821 76.710659 78.11391 79.183269 80.18578 82.38823 84.860889 85.741939 157.24842 159.45085">Ausgefertigtinam</tspan><tspan y="-169.15488" x="62.017114 64.62355 66.69508 67.83136 70.03661 72.30873 73.17757 74.11325 76.118328 78.32358 80.595699 84.13777 85.0066 158.45131 160.65657">Establishedinon</tspan></text>
<text fill="#ed1a4e" xml:space="preserve" transform="matrix(.9999996 0 -0 .9999996 0 842)" font-size="9.89063" font-family="Helvetica" font-weight="bold"><tspan y="-173.098" x="292.2413 297.78804">15</tspan></text>
<text fill="#ed1a4e" xml:space="preserve" transform="matrix(.9999996 0 -0 .9999996 0 842)" font-size="3.95625" font-family="Helvetica"><tspan y="-175.10285" x="305.3396 307.81224 310.01625 312.2203 313.10295 315.37504 316.44438 319.45155 321.1891 324.12937 326.33457 328.33958 330.3446 332.5498 333.87159 336.01036 337.0797 339.35179 340.42118 341.69075 343.89476 346.09877 348.37086 351.17784 353.04914 355.8561 358.1282 360.06636 363.67524 365.8793 369.4882 371.6922 373.9643 374.84693 375.64888 377.7876 379.9928">Zap&#x0142;ata/R&#x00fc;ckerstattuung/Cashondeliver</tspan></text>
<path transform="matrix(.12,0,0,-.12,0,842)" d="M366.457 1281.92H1651.7471V1285.8654H366.457Z" fill="#ed1a4e"/>
<path transform="matrix(.12,0,0,-.12,0,842)" d="M1648.04 544.02H1651.9854V1285.864H1648.04Z" fill="#ed1a4e"/>
<path transform="matrix(.12,0,0,-.12,0,842)" d="M1652.44 1285.86H2937.77V544.066H1652.44ZM1668.59 560.223H2921.62V1269.72H1668.59" fill="#ed1a4e"/>
<path transform="matrix(.12,0,0,-.12,0,842)" d="M366.457 1281.92H4371.767V1285.8654H366.457Z" fill="#ed1a4e"/>
<path transform="matrix(.12,0,0,-.12,0,842)" d="M366.457 1269.62H2937.737V1285.8661H366.457Z" fill="#ed1a4e"/>
<text fill="#ed1a4e" xml:space="preserve" transform="matrix(.9999996 0 -0 .9999996 0 842)" font-size="9.89063" font-family="Helvetica" font-weight="bold"><tspan y="-142.491" x="48.9183 54.465066">22</tspan></text>
<text fill="#ed1a4e" xml:space="preserve" transform="matrix(.9999996 0 -0 .9999996 0 842)" font-size="9.89063" font-family="Helvetica"><tspan y="-142.491" x="203.2263 208.77306">23</tspan></text>
<text fill="#ed1a4e" xml:space="preserve" transform="matrix(.9999996 0 -0 .9999996 0 842)" font-size="9.89063" font-family="Helvetica" font-weight="bold"><tspan y="-142.491" x="357.53334 363.08006">24</tspan></text>
<text fill="#ed1a4e" xml:space="preserve" transform="matrix(.9999996 0 -0 .9999996 0 842)" font-size="3.95625" font-family="Helvetica"><tspan y="-148.37194" x="370.6306 373.17018 374.57344 376.64533 378.9174 380.8556 382.86064 383.8631 385.8013 386.41065 389.40989 391.61509 392.7513 394.0877 396.09236 398.1642 401.50566 403.71086 405.98295 408.78993 410.66123 413.73524 416.0073 418.47996 420.68519 424.0266 426.23179 427.36805 429.57325 431.7784 434.0505 436.2557">Przesy&#x0142;ke&#x02db;otrzymano/Gutempfangen</tspan><tspan y="-143.42662" x="370.6306 372.36817 375.57594 377.77799 379.98008 382.25215 385.52674 386.93003 389.13209 391.1371 392.0178 394.08967 396.29173">/Goodsrecived</tspan><tspan y="-131.59772" x="358.46794 361.80937 362.67817 364.95027 365.75218 367.8905 369.89555 372.10075 374.90769 377.17979 377.45747 379.25209 379.67655 424.762 426.9672 429.2393 430.0412">Miejscowos&#x00b4;c&#x00b4;dnia</tspan><tspan y="-126.652408" x="358.46794 361.6088 362.94523 426.76664 428.97184">Ortam</tspan><tspan y="-121.70709" x="358.46794 361.07438 362.0769 364.28218 366.28724 427.8362 430.04145">Placeon</tspan><tspan y="-77.199298" x="47.914918 50.521326 52.72654 54.99862 57.203836 58.206346 61.547803 63.753015 65.75804 66.827419 69.03263 72.374057 74.64613 76.85134 79.05656 81.32863 83.533847 85.73907 88.01114 90.95142 92.95646">Podpisistempelnadawcy</tspan><tspan y="-72.25398" x="47.914918 50.78122 52.990789 54.12702 56.332239 57.659524 59.797883 61.736047 64.00812 65.33542 66.223598 67.42669 69.899349 72.17142 74.37663 77.85181 80.59194 81.6613 83.866519 87.20794 89.48003 91.68959 93.8948 96.166889 98.372089 101.71354 104.453678 106.66323 108.6014 110.87348 113.08305 115.29262 117.56469 118.89199">UnterschriftundStempeldesAbsenders</tspan><tspan y="-67.30867" x="47.914918 50.521326 51.523836 53.730627 55.937429 58.209508 59.278886 61.55096 62.87549 66.48438 68.69117 70.897968 74.37313 76.44463 77.580867 79.78767 83.129077 86.73797 88.943187 91.41584 92.55207 94.758869 98.36776 100.372798 102.57958 104.78637 106.993167 109.26524">Signatureandstampofthesender</tspan><tspan y="-77.1993" x="202.22193 204.82834 207.03354 209.23876 211.51082 212.44646 215.78789 218.05995 219.99811 221.13437 223.33957 226.68102 228.95307 231.15827 233.36348 235.56868 236.97193 239.0434 241.31548 244.12244 246.32762 246.64292 248.33382 250.5391 251.54166 253.54669">Podpisistempelprzewoz&#x00b4;nika</tspan><tspan y="-72.25399" x="202.22193 205.02883 207.30086 208.3702 210.64221 211.97698 214.1153 216.0534 218.25858 219.66179 220.53052 221.7336 224.2062 226.47824 228.6834 232.15853 234.83177 235.94899 238.16603 241.50742 243.77944 245.99649 248.20166 250.41872 252.69075 256.03218 258.50477 259.83955 262.05659 264.19486 266.40003 267.5172 268.58656 270.85859 273.06376 274.39854 276.6706 278.00538">UnterschriftundStempeldesFrachtf&#x00fc;hrers</tspan><tspan y="-67.30868" x="202.22193 204.82834 205.83084 208.03685 210.24285 212.44886 213.5851 215.79109 217.19435 220.73638 223.00843 225.21443 228.68959 230.76108 231.89733 234.10334 237.44475 241.05362 243.25887 245.73152 246.86775 249.07376 252.68265 254.62084 256.89289 258.21665 259.5404 260.425 262.69709">Signatureandstampofthecarrier</tspan><tspan y="-77.19931" x="356.52894 359.13539 361.34346 363.55146 365.7595 366.76206 370.10356 372.37568 374.31388 375.45014 377.65818 380.99964 383.2077 385.47984 387.68507 389.89033 392.16246 394.3677 395.37025 397.5755 398.9013 400.90635">Podpisistempelodbiorcy</tspan><tspan y="-72.254" x="356.52894 359.3359 361.608 362.67738 364.94944 366.27558 368.34709 370.35209 372.55729 373.96058 374.82939 376.03248 378.50514 380.7135 382.98558 386.3939 389.13404 390.27024 392.47544 395.8169 398.02207 400.29417 402.49937 404.70777 406.97987 410.25444 412.99455 416.33598 418.54118 419.67738 421.88258 424.15467 426.36308 428.57145 429.97474">UnterschriftundStempeldesEmpf&#x00e4;ngers</tspan><tspan y="-67.308689" x="356.52894 359.13536 360.071 362.3431 364.5483 366.7535 367.8897 370.0949 371.4982 375.04023 377.31233 379.51753 382.9927 385.0642 386.2004 388.4056 391.74705 395.35594 397.5612 400.03385 401.17005 403.37525 406.98414 408.92234 411.12754 413.39964 415.33778 416.3403 418.5455 420.81758 423.02278">Signatureandstampoftheconsignee</tspan><tspan y="-57.418058" x="43.971925 47.647718 49.78611 50.173955 51.99182 54.598169 57.53846 60.879877 64.355037 66.22634 67.362567 70.30286 73.77802 75.64932 78.322589 80.594669 81.3966 83.40163 85.539989 88.948299 92.28975 94.56182 96.76071 98.95958 102.56849 104.76736 105.64485 109.25374 112.59516 113.47266 114.083309 115.67923 117.884449 120.02279 121.96096 124.23305 126.43825 127.76829 130.04036 132.25267 134.465 137.33406 139.40555 141.41059 144.9526 147.22469 148.55475 150.55979 152.7721 155.57907 157.85112 159.92292 160.30702 162.19135 166.33472 168.6068 169.94318 172.14798 174.42006 176.62487 179.48642 181.42458 183.56293 186.97124 189.24329 191.4481 193.65291 195.92498 198.86527 199.73404 201.93886 204.21092 207.75295 209.95813 211.96317 213.09941 215.30423 216.30673 218.51154 220.71636 221.59978 223.87184 227.21326 229.68592 231.62407 232.89365 233.2837 235.10115 236.43753 239.91269 242.05103 244.2594 246.26442 247.33382 249.53903 250.54154 253.88298 256.15507 258.36027 260.29844 262.5705 264.7789 266.9879 269.26 272.80204 275.0741 276.40025 278.40528 280.61366 283.95509 287.29655 288.1653 288.77308 290.36903 292.57423 294.71257 296.65074 298.92283 301.12803 302.4581 304.7302 306.94255 309.15489 312.02397 313.37306 315.56599 318.43507 320.64744 321.64994 322.25465 325.12013 327.59275 328.92366 331.1368 333.40888 335.48078 337.75285 339.95808 341.28895 342.40223 345.94429 348.8177 350.14857 352.42066 354.63383 356.84696 359.71684 361.92997 364.14314 368.35337 370.22468 371.36088 374.30116 377.7759 378.97859">Wzo&#x00b4;rCMR/IRU/Polskaz1976dlamie&#x02db;dzynarodowychprzewozo&#x00b4;wdrogowychodpowiadaustaleniom,kto&#x00b4;rezosta&#x0142;ydokonaneprzezMie&#x02db;dzynarodowa&#x02db;Unie&#x02db;TransportuDrogowego/IRU/.</tspan></text>
<text fill="#ed1a4e" xml:space="preserve" transform="matrix(0 -.9999996 .9999996 0 0 842)" font-size="3.95625" font-family="Helvetica"><tspan y="30.1397" x="219.611 222.47574 226.01784 228.88259 230.82079 233.0929 235.29816 236.30072 238.50592 239.39255 241.60059 243.8727 244.74149 248.2836 250.55573 252.76372 256.37263 258.5807 260.78877 262.99678 265.26887 268.07588 268.94474 271.21687 273.42207 275.49403 276.36283 278.63496 279.43699 281.70909 283.91429 284.1766 286.038 287.9762 288.8557 290.20487 292.4647 294.6656 296.8665 299.1386 301.3395 304.1465 306.28529">Dowype&#x0142;nieniapododpowiedzialnos&#x00b4;cia&#x02db;nadawcy</tspan><tspan y="35.08501" x="219.611 222.2174 224.4226 226.56096 228.4991 230.7712 231.84055 234.1126 235.04824 235.9321 238.20415 241.74616 244.01827 246.22348 247.29282 249.56494 252.23809 254.51021 256.7154 259.32176 262.0619 264.26707 265.59007 267.86213 270.06733 271.20356 274.14384 276.34904 277.7523 278.82173 281.09379 283.29899 286.84104 289.1131 291.3183 294.65977 297.26618 299.47138 301.6097 303.8149 306.0201 308.29219 310.49739 311.82038">Auszuf&#x00fc;llenunterderVerantwortungdesAbsenders</tspan><tspan y="40.03032" x="219.611 222.08365 225.5588 227.75925 231.36815 233.30629 235.57834 238.91976 241.12502 242.12752 244.33272 245.46898 247.67417 251.28305 253.48827 256.9634 258.1665 260.43864 263.84696 265.9853 268.18577 270.38624 272.6583 274.8588 276.177 277.05613 280.39759 281.80088 284.00608 286.01106 288.21153 290.41206 292.6125 294.75086 295.6299 297.83045 298.7095 299.71199 300.59114 301.66047">Tobecompletedonthesender&#x2019;sresponsibility</tspan></text>
<text fill="#ed1a4e" xml:space="preserve" transform="matrix(0 -.9999996 .9999996 0 0 842)" font-size="9.89063" font-family="Helvetica"><tspan y="38.02548" x="321.124 330.0118 338.29823 343.845">1&#x2013;15</tspan></text>
<text fill="#ed1a4e" xml:space="preserve" transform="matrix(0 -.9999996 .9999996 0 0 842)" font-size="3.95625" font-family="Helvetica"><tspan y="30.139698" x="356.07539 358.9468 359.8156 361.1647 362.02085 364.15916 366.09736 368.36943 369.23823 372.78025 375.05235 376.3848 378.59953">w&#x0142;a&#x02db;cznieoraz</tspan><tspan y="35.085008" x="356.07539 358.34748 359.21626 361.4108 363.4158 365.4873 367.6925 368.56565 369.43879 371.71089 373.78236 375.78739 376.66056 377.59623 379.60124">einschliesslich</tspan><tspan y="40.030317" x="356.07539 356.95368 359.22578 361.16398 362.16654 364.3662 366.63835 367.51664 369.7163 373.32527 375.52494 377.7246">includingand</tspan></text>
<text fill="#ed1a4e" xml:space="preserve" transform="matrix(0 -.9999996 .9999996 0 0 842)" font-size="9.89063" font-family="Helvetica"><tspan y="38.025476" x="394.70228 400.249 407.93409 415.81999 421.36674 428.9183 436.9377 442.5517">19+20+22</tspan></text>
<text fill="#ed1a4e" xml:space="preserve" transform="matrix(0 -.9999996 .9999996 0 0 842)" font-size="3.95625" font-family="Helvetica"><tspan y="30.139695" x="456.98649 459.846 462.04884 464.25166 465.6549 467.59303 469.73136 471.9365 474.14167 476.4137 479.2206 480.10206 482.30488 484.57695 486.64878 487.53019 489.73298 492.005 495.547 496.68315 497.55195 499.75474 501.89305 502.96235 504.96736 508.3087 510.51396 511.5164 512.3852 514.58798 515.4694 517.6722 521.0136 523.28567 526.22598 528.2305 530.4333 532.6361 533.5176 535.7896 536.7253 540.2004 542.4055 543.8087 545.8801 548.1522 550.9591 553.1619 553.4667 555.15768 557.36288 558.3655">Rubrykiobwiedzionet&#x0142;ustymiliniamiwype&#x0142;niaprzewoz&#x00b4;nik</tspan><tspan y="35.085004" x="456.98649 459.8469 460.72923 464.27128 467.61277 468.49507 470.96775 472.23777 474.44303 475.57926 478.05198 480.25566 482.45936 484.66307 486.06636 488.27006 490.27513 492.347 493.48326 495.68693 499.2959 501.49958 502.3819 504.58558 505.4679 507.74 511.2821 513.5542 514.3562 516.6283 518.832 521.0356 522.43887 524.64248 526.8461 530.1876 531.4576 533.66287 537.138 540.07839 542.35049 544.5557 545.87716 546.7594 548.7645 550.9698 554.5787 557.9201 560.1238 562.1289 564.2004 566.40548 569.8806 572.0191 574.2227 578.7672 581.2399 582.6432 584.8468 586.91879 589.1909 590.2603 591.39657 593.6018 595.8739 597.21078 599.4144 602.15457 604.3582 606.6303 608.56857 610.7738 613.0459 614.24868 616.5208 617.3896 618.19168 620.6643 623.6715 625.8767 627.27999 629.48367 631.68728 633.8909">DiemitfettgedrucktenLinieneingerahmtenRubrikenm&#x00fc;ssenvomFrachtf&#x00fc;hrerausgef&#x00fc;lltwerden.</tspan><tspan y="40.03031" x="456.98646 459.45906 461.6642 465.13938 467.27769 469.48405 471.69044 473.69544 475.90177 479.24324 480.37937 481.71577 483.92213 487.2635 489.53556 493.07756 495.94065 496.9432 498.01246 501.6209 503.82734 506.09938 508.30567 510.24385 513.58529 514.45407 515.45657 517.6616 519.9337 523.27517 526.61648 528.82168 530.82626 533.2989 534.36819 535.37069 536.2557 537.1407 539.347 542.9558 543.8246 547.36666 549.6387 552.9801 554.0494 556.3215 559.86349 561.86849 564.0736 565.4768 566.8136 567.8154 570.02059 571.34469">Thespacesframedwithheavylinesmustfilledinbythecarrier.</tspan></text>
<text fill="#ed1a4e" xml:space="preserve" transform="matrix(0 .9999996 -.9999996 0 0 842)" font-size="3.95625" font-family="Helvetica"><tspan y="-536.5" x="-599.397 -595.92178 -590.77578 -588.50369 -587.16726 -585.229 -583.2239 -581.01589 -578.7438 -576.53579 -574.4638 -570.98867 -568.7165 -567.39077 -565.31887 -563.0467 -560.2397 -558.0317 -556.02658 -552.41769 -551.34829 -549.0762 -546.13546 -543.9275 -542.5242 -542.13827 -540.3204 -536.11019 -533.9041 -533.0194 -530.8134 -528.5414 -526.3353 -524.3303 -522.12429 -521.1217 -518.9157 -516.91067 -514.9725 -512.7004 -510.6285 -508.6239 -506.41786 -503.94523 -501.73924 -499.46714 -498.14344 -497.76387 -495.94639 -493.94126 -490.59977 -488.39497 -485.45466 -483.18257 -480.97886 -479.8426 -477.63893 -475.4352 -474.5529 -472.28077 -470.07707 -467.87336 -464.26445 -462.06074 -459.85704 -457.852 -456.84944 -454.64573 -452.44206 -450.16993 -447.96623 -447.08393 -443.47499 -441.53678 -439.3331 -439.0653 -437.33763 -434.39735 -433.51707 -431.245 -429.04335 -427.03834 -424.96644 -422.76127 -420.48918 -419.62034 -417.4187 -414.94606 -412.7444 -410.47233 -409.67039 -407.39833 -407.04783 -405.32725 -401.98579 -399.78059 -397.50849 -395.30329 -393.0981 -392.67219 -389.7556 -385.54539 -383.27397 -381.33583 -380.1996 -377.9944 -376.72483 -374.51963 -373.65083 -368.97297 -366.09916 -365.23036 -363.02516 -361.68873 -359.55039 -357.61225 -355.34016 -352.8675 -350.92936 -349.92683 -347.72163 -345.7166 -345.10688 -343.51094 -341.03828 -340.16947 -339.16697 -337.16194 -335.22377 -333.01856 -332.40934 -329.41007 -327.20487 -325.8016 -323.5964 -320.2549 -316.0447 -313.83714 -311.565 -309.3574 -307.41926 -302.67454 -300.46934 -299.144 -297.13899 -295.0671 -292.79499 -290.5874 -288.37983 -286.37483 -282.7659 -281.89717 -281.09519 -279.82496 -277.61735 -276.21409 -275.60487 -274.0089">*Wprzypadkuprzewozutowaro&#x00b4;wniebezpiecznych,opro&#x00b4;czewentualnegoposiadaniazas&#x00b4;wiadczenia,nalez&#x02d9;ypodac&#x00b4;wostatnimwierszu:klase&#x02db;,liczbe&#x02db;orazwdanymprzypadkulitere&#x02db;.</tspan><tspan y="-531.5547" x="-599.397 -595.92178 -593.2485 -590.9764 -588.77108 -586.56747 -584.3638 -583.22756 -581.02389 -578.7518 -577.43038 -576.4278 -575.5455 -573.60726 -571.33517 -569.1299 -565.521 -562.44699 -560.24337 -558.9738 -557.65237 -554.1772 -553.1746 -551.2364 -550.1001 -547.62747 -545.4238 -543.22018 -541.0817 -539.077 -536.87179 -534.13168 -531.92807 -529.7244 -527.118 -524.9143 -522.77597 -520.5722 -518.36868 -517.2327 -515.0291 -512.75698 -511.87467 -510.93894 -508.66685 -505.25843 -502.51829 -500.313 -498.30793 -496.23646 -493.9643 -491.75898 -490.87666 -488.67295 -487.79066 -485.51853 -483.31483 -481.1111 -478.9074 -476.43473 -474.16258 -471.95735 -469.48466 -467.2794 -465.00727 -462.33396 -461.45167 -459.17955 -457.9768 -455.9717 -454.9023 -452.6302 -449.08815 -446.816 -445.9337 -443.72999 -442.72746 -439.3191 -437.04695 -434.8417 -432.10154 -429.29457 -427.02244 -424.81718 -423.49574 -422.4932 -419.1517 -416.94645 -414.67433 -412.7361 -410.46403 -408.2603 -406.0566 -403.8529 -401.58079 -399.37709 -396.9044 -394.70069 -393.81837 -390.2094 -387.46925 -386.58695 -384.38398 -382.44578 -380.30744 -378.10374 -375.631 -373.3589 -372.55696 -368.948 -366.4753 -365.593 -364.45677 -363.25367 -360.98155 -359.66007 -357.18739 -355.24919 -352.97709 -350.1701 -349.16755 -345.69233 -343.48707 -341.21495 -339.0113 -336.8076 -334.60389 -332.35044 -330.14875 -327.9471 -325.67506 -324.47196 -322.26676 -321.3865 -320.5062 -317.1648 -314.89268 -312.68748 -309.9474 -307.2741 -305.002 -303.06385 -300.8622 -298.85716 -297.58763 -295.386 -293.18437 -290.9827">*Beigef&#x00e4;hrlichenG&#x00fc;trnist,ausserdereventuellenBescheinigung,aufderletztenLiniederRubrikanzugeben:dieKlasse,dieZiffer,sowiegegebenenfallsderBuchstabe.</tspan><tspan y="-526.6094" x="-599.397 -595.92178 -594.719 -591.2439 -589.172 -586.8999 -584.96176 -581.35287 -579.1477 -576.67507 -574.46987 -572.1978 -569.99386 -567.7898 -565.5177 -564.1959 -561.99197 -559.71987 -556.3784 -554.1744 -551.9704 -549.76638 -547.4943 -544.15286 -540.81149 -538.6074 -536.40347 -535.2672 -534.3846 -532.18057 -529.97659 -527.50387 -525.2318 -523.0266 -520.9547 -520.08596 -517.81387 -515.60867 -512.2672 -511.131 -508.927 -505.31809 -503.11408 -500.91007 -498.905 -496.8332 -495.96434 -493.76026 -492.87757 -489.26869 -487.26368 -485.05897 -483.73719 -482.46723 -481.59843 -480.52903 -479.52653 -477.5215 -475.31629 -474.1801 -473.17759 -470.9735 -468.7695 -467.6333 -465.4293 -461.82038 -460.751 -458.4789 -454.93693 -454.06809 -451.79603 -449.85789 -447.38523 -446.3827 -445.50007 -443.29603 -439.68714 -437.48194 -435.00929 -433.87309 -431.66905 -428.06013 -426.12199 -423.8499 -422.96726 -420.7632 -417.42179 -413.8129 -412.7435 -410.47145 -406.9294 -404.7242 -402.45213 -401.11573 -399.97953 -398.97703 -397.03883 -394.83363 -393.951 -391.67893 -390.35716 -387.0157 -384.81196 -382.3393 -381.06977 -378.86457 -375.38938 -373.31788 -372.4352 -370.16313 -368.22499 -366.08665 -363.61399 -362.54463 -360.27253 -356.73054 -354.45845 -352.25325 -348.9118 -346.7078 -344.50379 -341.8974 -339.62528 -337.42008 -333.81123 -332.74183 -330.53779 -326.93666 -326.06785 -323.86265 -322.5931 -321.4569 -319.25166 -316.51158 -314.0389 -313.23704 -310.76438 -308.49226 -306.28706 -304.28205">*Incaseofdangerousgoodsmention,besidesthepossiblecertification,onthelastlineofthecolumntheparticularsoftheclass,thenumberandtheletter,ifany.</tspan></text>
<path transform="matrix(.12,0,0,-.12,0,842)" d="M2794.98 5562.79H2804.5777V5572.3879H2794.98Z" fill="#ed1a4e"/>
</g>
</svg>
